# xmcd CD database file
#
# Track frame offsets:
#	150
#	12687
#	26847
#	42715
#	52988
#	64785
#	74967
#	87622
#	98371
#	112973
#	123324
#	134892
#	144702
#	154955
#
# Disc length: 2231 seconds
#
# Revision: 5
# Processed by: cddbd v1.5PL3 Copyright (c) Steve Scherf et al.
# Submitted via: CdAid (MTCDDB.DLL V2003.12.21)
#
DISCID=db08b50e
DTITLE=Various Artist - 30 Anos De Jovem Guarda - É Papo Firme - Os Reis do I
DTITLE=ê Iê iê - CD 04
DYEAR=1995
DGENRE=Rock
TTITLE0=Wanderléa - Ternura (Somehow It Got To Be Tomorrow - Today)
TTITLE1=Sérgio Reis - Coração De Papel
TTITLE2=Os Incríveis - Era Um Garoto Que Como Eu Amava Os Beatles E Os Rolling
TTITLE2=Stones
TTITLE3=Renato E Seus Blue Caps - Feche Os Olhos (All My Loving)
TTITLE4=Leno - O Rítmo Da Chuva (Rhythm Of The Rain)
TTITLE5=Waldirene - Garota Do Roberto
TTITLE6=Erasmo Carlos - Gatinha Manhosa
TTITLE7=Os Vips - Parei Na Contramão
TTITLE8=Martinha - Nossa Canção
TTITLE9=Golden Boys - Ai De Mim (All Of Me)
TTITLE10=Eduardo Araújo - É Papo Firme
TTITLE11=Jerry Adriani - Broto Legal (I'm In Love)
TTITLE12=Trio Esperança - O Passo Do Elefantinho (Baby Elephant Walk)
TTITLE13=Wanderley Cardoso - Doce De Côco
EXTD=PolyGram Brasil - Coletânea 30 Anos de Jovem Guarda - update MSF - 06/02/
EXTD=2003 ID3G:  17 YEAR: 1995
EXTT0=
EXTT1=
EXTT2=
EXTT3=
EXTT4=
EXTT5=
EXTT6=
EXTT7=
EXTT8=
EXTT9=
EXTT10=
EXTT11=
EXTT12=
EXTT13=
PLAYORDER=
